<svg version="1.1" xmlns="http://www.w3.org/2000/svg" style="display: block;" viewBox="0 0 2048 2048" width="1024" height="1024" preserveAspectRatio="xMidYMid meet">
<path transform="translate(0,0)" fill="rgb(109,74,226)" d="M 489.008 281.031 C 524.6 267.962 561.867 260.013 599.693 257.422 C 624.163 255.588 647.351 255.945 671.862 255.947 L 762.172 255.959 L 1051.5 255.971 L 1308.01 255.973 C 1404.86 255.974 1492.57 248.639 1583 291.158 C 1661.71 328.534 1722.47 395.501 1752.04 477.472 C 1771.02 530.746 1774.37 574.066 1774 629.985 C 1776.49 641.946 1775.35 652.648 1775.75 664.744 C 1777.22 709.833 1776.77 754.984 1775.51 800.066 C 1774.84 824.057 1776.44 850.032 1776.51 874.508 L 1775.72 1005.52 L 1776.45 1316.55 C 1776.53 1399.4 1784.19 1496.66 1754.91 1575.53 C 1751.35 1585.1 1751.81 1589.4 1749.45 1596.99 C 1743.74 1615.35 1736.38 1633.84 1730.31 1652.16 C 1690.47 1739.03 1604.9 1795.25 1512.05 1810.02 C 1480.01 1815 1450.05 1814.28 1419.75 1814.13 L 1329.59 1813.68 L 1002.95 1813.46 L 711.642 1813.46 L 643.04 1813.69 C 625.795 1813.9 608.462 1813.81 591.357 1813.93 C 462.219 1814.83 340.883 1735.63 304.784 1609.1 C 302.976 1602.76 301.401 1595.75 299.5 1589.38 C 271.667 1529.41 271.495 1467.5 271.453 1402.81 L 272.231 1270.33 L 271.5 948.058 L 271.469 728.579 C 271.467 703.394 271.206 678.061 272.181 652.919 C 272.576 642.708 272.072 627.214 273.893 617.782 C 274.62 566.519 279.974 520.372 298.247 472.006 C 301.689 462.894 309.496 444.632 314.839 436.372 L 315.339 434.943 C 315.454 434.678 315.569 434.413 315.683 434.148 C 347.148 371.651 417.543 307.3 483.016 283.656 L 489.008 281.031 z"/>
<path transform="translate(0,0)" fill="rgb(186,185,185)" d="M 273.893 617.782 C 274.659 643.831 274.143 671.894 274.118 698.062 L 274.09 830.927 L 274.115 1250.91 L 274.078 1386.53 C 274.058 1438.44 271.565 1484.84 283.546 1535.83 C 297.395 1593.76 327.978 1646.33 371.487 1687.01 C 412.987 1726.32 464.949 1752.83 521.138 1763.35 C 557.339 1770.32 619.067 1768.09 658.523 1768.07 L 863.546 1768.05 L 1276.82 1768.04 L 1410.05 1768.04 C 1434.19 1768.05 1461.88 1768.74 1485.78 1767.9 C 1565.18 1765.11 1638.03 1729.8 1692.07 1672.06 C 1729.16 1632.5 1754.74 1583.55 1766.04 1530.51 C 1775.51 1485.48 1773.91 1444.07 1773.91 1398.41 L 1773.89 1276.16 L 1773.83 843.381 L 1773.81 702.245 C 1773.81 680.768 1772.86 650.704 1774 629.985 C 1776.49 641.946 1775.35 652.648 1775.75 664.744 C 1777.22 709.833 1776.77 754.984 1775.51 800.066 C 1774.84 824.057 1776.44 850.032 1776.51 874.508 L 1775.72 1005.52 L 1776.45 1316.55 C 1776.53 1399.4 1784.19 1496.66 1754.91 1575.53 C 1751.35 1585.1 1751.81 1589.4 1749.45 1596.99 C 1743.74 1615.35 1736.38 1633.84 1730.31 1652.16 C 1690.47 1739.03 1604.9 1795.25 1512.05 1810.02 C 1480.01 1815 1450.05 1814.28 1419.75 1814.13 L 1329.59 1813.68 L 1002.95 1813.46 L 711.642 1813.46 L 643.04 1813.69 C 625.795 1813.9 608.462 1813.81 591.357 1813.93 C 462.219 1814.83 340.883 1735.63 304.784 1609.1 C 302.976 1602.76 301.401 1595.75 299.5 1589.38 C 271.667 1529.41 271.495 1467.5 271.453 1402.81 L 272.231 1270.33 L 271.5 948.058 L 271.469 728.579 C 271.467 703.394 271.206 678.061 272.181 652.919 C 272.576 642.708 272.072 627.214 273.893 617.782 z"/>
<path transform="translate(0,0)" fill="rgb(78,52,171)" d="M 489.008 281.031 C 498.052 285.268 499.494 285.257 509.885 285.616 L 509.672 286.234 C 503.5 287.443 487.066 289.671 483.016 283.656 L 489.008 281.031 z"/>
<path transform="translate(0,0)" fill="rgb(78,52,171)" d="M 315.339 434.943 C 319.821 437.67 319.989 442.695 317.589 447.158 L 316.462 447.187 C 315.911 444.613 314.816 438.84 314.839 436.372 L 315.339 434.943 z"/>
<path transform="translate(0,0)" fill="rgb(252,252,252)" d="M 1011.67 662.969 C 1014.9 698.123 1016.89 730.836 1016.33 766.261 C 1016.15 777.818 1017.25 794.702 1015.15 805.616 C 1013.87 811.998 1011.06 817.972 1006.96 823.02 C 999.563 832.238 988.786 838.111 977.033 839.326 C 922.563 844.609 934.713 784.283 919.091 752.662 C 902.855 719.796 877.493 698.421 863.061 663.709 C 855.338 644.742 851.01 624.566 850.275 604.101 C 848.525 558.064 865.18 513.226 896.559 479.494 C 928.54 445.663 972.588 425.83 1019.12 424.31 C 1065.63 422.99 1110.75 440.256 1144.49 472.289 C 1178.15 504.4 1197.42 548.743 1197.92 595.26 C 1198.76 637.494 1184.82 675.389 1158.75 708.043 C 1146.53 723.236 1136.48 737.776 1128.17 755.429 C 1114.82 783.313 1124.22 815.114 1100.51 838.163 C 1063.32 874.322 1010.59 888.922 971.709 922.455 C 959.569 932.924 954.063 948.146 963.073 962.369 C 986.878 930.615 1019.09 919.329 1052.56 899.708 C 1065.6 892.067 1080.6 885.294 1089.65 872.526 C 1088.9 865.808 1086.93 858.715 1095.51 856.416 C 1103.24 857.446 1104.82 865.935 1103.75 872.378 C 1102.81 878.077 1099.44 882.547 1096.06 887.066 C 1103.62 899.39 1105.78 904.028 1101.29 918.626 C 1103.03 924.61 1102.92 931.464 1099.72 936.941 C 1108.99 954.093 1103.08 964.049 1090.79 977.425 C 1106.2 1030.94 1043.09 1037.21 1019.63 1070.15 C 1013 1079.46 1012.69 1104.22 1017.64 1114.03 C 1013.88 1115.28 1011.1 1115.74 1007.2 1116.5 C 1004.41 1114.44 1002.78 1112.54 1000.42 1110.05 C 997.278 1068.23 1005.27 1056.56 1039.98 1034.16 C 1036.97 1027.6 1038.54 1023.91 1031.25 1018.44 C 1029.35 1018.09 1028.36 1017.57 1026.68 1019.15 C 1013.18 1031.84 1004.34 1047.88 999.546 1065.72 C 999.122 1067.31 998.113 1067.72 996.751 1068.32 L 996.077 1067.84 C 987.485 1059.45 988.196 1047.68 982.541 1039.53 C 965.023 1014.27 950.232 1012.11 955.415 976.851 C 919.636 928.939 974.756 900.406 1009.94 879.792 L 1008.34 878.851 C 1012.05 876.357 1024.75 868.805 1028.75 867.537 C 1019.68 860.251 1024.43 861.585 1019.1 855.153 C 1013.46 857.811 1011.79 859.936 1005.52 862.222 L 1003.68 861.293 C 995.358 864.272 931.957 872.976 967.048 889.586 C 969.672 894.33 969.121 898.722 964.636 902.032 C 947.024 904.41 936.572 877.584 948.502 864.784 C 957.783 854.827 969.617 854.426 981.874 852.119 C 1036.71 841.799 1032.43 806.87 1032.41 762.448 C 1032.4 731.884 1032.37 692.693 1037.09 662.966 C 1028.75 663.029 1019.98 663.237 1011.67 662.969 z"/>
<path transform="translate(0,0)" fill="rgb(109,74,226)" d="M 996.686 660.741 C 1000.45 696.345 1001.96 731.567 1001.69 767.439 C 1000.65 781.517 1004.42 801.445 996.186 813.611 C 992.546 817.871 982.97 824.391 977.468 824.635 C 943.344 826.145 947.032 800.303 942.94 776.232 C 939.023 753.191 925.827 728.768 911.426 710.715 C 884.5 676.964 867.708 647.962 866.137 603.345 C 864.496 561.479 879.547 520.674 907.98 489.9 C 936.661 459.398 976.276 441.525 1018.12 440.207 C 1060.97 438.454 1102.7 454.12 1133.8 483.636 C 1164.17 512.622 1181.71 552.54 1182.5 594.517 C 1183.03 615.261 1179.39 635.901 1171.8 655.214 C 1157.21 691.988 1130.82 711.97 1114.97 746.601 C 1110.23 757.094 1106.79 768.129 1104.74 779.459 C 1102.43 792.76 1103.42 806.293 1096.48 818.399 C 1089.27 830.97 1077.13 840.644 1064.84 848.03 C 1063.07 847.881 1062.64 847.769 1060.99 848.631 C 1060.42 848.931 1056 851.063 1055.61 851.191 C 1055.61 851.192 1049.57 848.295 1049.56 848.295 C 1046.61 848.407 1045.1 849.043 1042.19 848.095 C 1039.36 840.186 1042.68 831.916 1041.81 825 C 1050.24 800.057 1046.75 763.349 1047.17 735.499 C 1047.56 710.546 1049 685.62 1051.51 660.789 C 1078.45 656.258 1116.54 637.852 1109.07 604.413 C 1107.2 596.07 1101.9 588.9 1094.48 584.658 C 1087.61 580.712 1079.4 579.826 1071.84 582.216 C 1046.64 590.249 1041.88 626.161 1038.61 648.519 C 1029.17 648.943 1018.76 649.612 1009.5 647.919 C 1004.96 620.71 999.862 576.129 961.238 581.875 C 943.946 584.447 935.785 603.978 939.777 619.663 C 946.02 644.192 973.362 657.984 996.686 660.741 z"/>
<path transform="translate(0,0)" fill="rgb(252,252,252)" d="M 980.938 470.01 C 984.289 469.646 984.156 469.731 987.481 470.499 C 990.422 472.717 990.533 472.55 992.079 476.071 C 990.847 486.169 974.785 487.697 965.989 492.486 C 944.85 503.995 927.965 521.528 917.475 543.205 C 913.371 551.687 910.683 560.127 906.622 568.693 C 901.533 569.156 900.212 569.34 896.45 565.683 C 894.077 558.684 897.507 551.289 900.174 544.795 C 915.541 507.38 943.677 483.751 980.938 470.01 z"/>
<path transform="translate(0,0)" fill="rgb(78,52,171)" d="M 1116.95 591.509 C 1120.47 597.48 1119.07 630.751 1118.48 638.988 L 1117.3 637.531 C 1116.6 627.549 1114.38 600.186 1116.95 591.509 z"/>
<path transform="translate(0,0)" fill="rgb(92,64,189)" d="M 1030.89 1013.97 C 1034.21 1019.6 1040.61 1028.01 1047.37 1021.06 C 1049.08 1015.64 1048.01 1012.4 1046.36 1006.95 L 1045.96 1005.67 C 1048.42 1002.64 1074.52 986.887 1077.48 986.479 C 1090.75 1002.62 1050.92 1027.76 1039.98 1034.16 C 1036.97 1027.6 1038.54 1023.91 1031.25 1018.44 C 1029.35 1018.09 1028.36 1017.57 1026.68 1019.15 C 1013.18 1031.84 1004.34 1047.88 999.546 1065.72 C 999.122 1067.31 998.113 1067.72 996.751 1068.32 L 996.077 1067.84 C 998.398 1063.13 1000.47 1056.13 1002.45 1050.99 C 1008.99 1034.09 1017.03 1025.08 1030.89 1013.97 z"/>
<path transform="translate(0,0)" fill="rgb(92,64,189)" d="M 1041.81 825 C 1042.68 831.916 1039.36 840.186 1042.19 848.095 C 1045.1 849.043 1046.61 848.407 1049.56 848.295 C 1049.57 848.295 1055.61 851.192 1055.61 851.191 C 1056 851.063 1060.42 848.931 1060.99 848.631 C 1062.64 847.769 1063.07 847.881 1064.84 848.03 C 1054.36 855.561 1022.09 874.065 1009.94 879.792 L 1008.34 878.851 C 1012.05 876.357 1024.75 868.805 1028.75 867.537 C 1019.68 860.251 1024.43 861.585 1019.1 855.153 C 1013.46 857.811 1011.79 859.936 1005.52 862.222 L 1003.68 861.293 C 1022.94 851.719 1032.4 844.403 1041.81 825 z"/>
<path transform="translate(0,0)" fill="rgb(78,52,171)" d="M 1036.73 842.317 C 1040.53 844.568 1039.92 847.065 1040.89 851.364 C 1035.54 848.345 1036.41 847.709 1036.73 842.317 z"/>
<path transform="translate(0,0)" fill="rgb(78,52,171)" d="M 1093.28 930.859 L 1101.29 918.626 C 1103.03 924.61 1102.92 931.464 1099.72 936.941 L 1093.28 930.859 z"/>
<path transform="translate(0,0)" fill="rgb(109,74,226)" d="M 969.009 984.351 C 980.064 945.937 1035.71 927.288 1066.69 907.966 C 1069.71 906.083 1082.85 897.123 1085.27 897.134 C 1097.74 908.823 1078.56 925.141 1069.06 931.576 C 1039.69 951.452 1002.37 963.587 982.778 994.973 C 980.414 1000.1 978.723 1006.47 977.054 1011.95 C 969.978 1000.55 968.527 997.587 969.009 984.351 z"/>
<path transform="translate(0,0)" fill="rgb(78,52,171)" d="M 969.009 984.351 C 981.74 987.698 974.924 990.335 982.778 994.973 C 980.414 1000.1 978.723 1006.47 977.054 1011.95 C 969.978 1000.55 968.527 997.587 969.009 984.351 z"/>
<path transform="translate(0,0)" fill="rgb(109,74,226)" d="M 1083.54 938.959 C 1093.4 948.474 1090.47 955.588 1082.83 965.359 C 1077.62 960.024 1073.97 954.923 1065.88 958.4 C 1060.91 965.307 1066.55 969.136 1071.31 973.785 C 1047.7 986.726 1018.65 1000.78 1002.4 1022.3 L 994.327 1035.04 C 986.043 1005.66 999.054 990.743 1022.71 975.344 C 1042.58 962.403 1063.67 952.038 1083.54 938.959 z"/>
<path transform="translate(0,0)" fill="rgb(109,74,226)" d="M 965.91 595.195 C 989.407 596.189 991.74 628.077 994.733 646.417 L 983.624 643.078 C 982.732 642.715 981.844 642.343 980.96 641.962 C 969.465 636.971 958.386 629.406 953.685 617.214 C 949.499 606.359 955.607 598.662 965.91 595.195 z"/>
<path transform="translate(0,0)" fill="rgb(109,74,226)" d="M 1063 608.917 C 1073.52 587.465 1097.69 592.305 1094.68 616.415 C 1090.71 633.736 1068.88 642.374 1053.36 646.438 C 1055.79 631.592 1058.19 623.129 1063 608.917 z"/>
<path transform="translate(0,0)" fill="rgb(78,52,171)" d="M 1063 608.917 C 1073.52 587.465 1097.69 592.305 1094.68 616.415 C 1093.81 613.288 1092.98 610.219 1092.58 606.995 C 1093.26 607.141 1064.64 608.831 1063 608.917 z"/>
<path transform="translate(0,0)" fill="rgb(78,52,171)" d="M 1069.39 615.815 C 1071.27 617.917 1071.62 625.192 1072.15 628.661 L 1069.87 627.106 C 1068.29 623.094 1069 620.155 1069.39 615.815 z"/>
<path transform="translate(0,0)" fill="rgb(252,252,252)" d="M 716.497 858.789 C 727.559 855.618 749.167 853.405 762.046 850.649 C 808.309 840.751 854.23 818.521 901.882 822.022 C 909.275 827.021 922.603 838.52 915.934 848.157 C 907.016 848.069 889.972 841.574 878.508 842.909 C 848.198 846.44 819.176 857.483 790 865.912 C 768.369 872.162 749.638 875.012 727.707 878.479 C 712.864 898.588 694.089 933.929 680.216 956.612 C 642.39 1017.83 605.344 1079.53 569.089 1141.7 C 591.837 1140.53 611.176 1135.29 633.071 1129.8 C 707.75 1111.08 786.567 1076.3 865.081 1084.64 C 910.13 1089.42 958.505 1107.07 992.301 1137.88 C 1004.2 1148.73 1014.39 1161.66 1024.42 1174.22 C 1057.68 1131.14 1080.47 1113.41 1132.79 1095.3 C 1252.36 1053.91 1362.94 1130.12 1479.48 1141.77 C 1441.82 1077.04 1401.54 1012.63 1363.32 948.075 C 1354.14 932.566 1330.27 888.624 1319.45 877.631 C 1268.04 874.82 1221.19 849.108 1170.3 843.152 C 1159.15 841.846 1147.05 847.229 1136.35 848.115 C 1133.47 848.353 1132.37 847.087 1130.71 845.494 C 1130.27 843.968 1130.08 842.747 1130.36 841.162 C 1131.4 835.257 1134.36 829.472 1139.34 825.973 C 1162.38 809.778 1254.96 843.067 1284.86 850.2 C 1300.47 853.922 1316.51 854.981 1332.22 858.146 C 1343.24 866.796 1374.25 923.265 1382.74 937.486 L 1462.56 1070.85 L 1494.27 1123.2 C 1499.94 1132.62 1507.82 1143.08 1511.1 1153.56 C 1511.99 1156.39 1511.75 1158.95 1510.16 1161.54 C 1507.08 1166.54 1500.85 1166.53 1495.65 1166.15 C 1386.65 1158.29 1261.31 1081.89 1155.54 1111.13 L 1154.27 1111.49 L 1155.65 1112.53 L 1152.45 1113.84 L 1152.73 1115.06 L 1156.61 1116.67 L 1155.46 1119.01 L 1150.5 1119.33 C 1144.55 1119.75 1140.55 1120.64 1135.84 1116.42 C 1103.39 1128.51 1073.07 1145.67 1053.17 1173.29 C 1036.03 1197.08 1025.29 1221.16 1002.17 1182.94 C 986.222 1156.59 946.887 1126.46 916.069 1117.66 C 909.603 1115.18 905.962 1114.15 899.243 1112.45 C 817.321 1087.95 734.198 1124.52 657.321 1144.93 C 652.008 1146.42 645.065 1148.61 639.828 1149.82 C 612.546 1157.85 583.984 1162.38 555.818 1165.85 C 542.162 1167.53 529.666 1164.1 539.001 1148.09 C 570.969 1093.28 604.505 1039.45 637.273 985.121 L 678.191 916.984 C 686.995 902.331 705.465 868.711 716.497 858.789 z"/>
<path transform="translate(0,0)" fill="rgb(78,52,171)" d="M 1135.84 1116.42 C 1143.06 1114.05 1146.85 1112.87 1154.27 1111.49 L 1155.65 1112.53 L 1152.45 1113.84 L 1152.73 1115.06 L 1156.61 1116.67 L 1155.46 1119.01 L 1150.5 1119.33 C 1144.55 1119.75 1140.55 1120.64 1135.84 1116.42 z"/>
<path transform="translate(0,0)" fill="rgb(252,252,252)" d="M 1390.15 903.502 C 1396.44 901.805 1405.46 900.216 1412.04 898.864 C 1416.71 904.649 1426.95 923.437 1431.28 930.888 C 1442.52 950.284 1453.96 969.564 1465.59 988.725 C 1504.61 1053.95 1545.4 1119.65 1583.79 1185.35 C 1585.79 1188.76 1590.52 1196.37 1590.19 1200.07 C 1589.72 1205.46 1583.45 1210.24 1578.07 1209.97 C 1561.8 1209.87 1545.61 1209.89 1529.43 1209.88 L 1424.73 1209.85 L 1100.14 1209.97 C 1071.14 1247.64 1024.9 1255.21 981.121 1237.56 C 968.048 1232.29 957.132 1220.39 948.235 1209.76 L 637.664 1209.8 L 530.89 1209.94 C 510.908 1210 490.904 1210.21 470.926 1209.81 C 465.799 1209.71 458.834 1207.46 458.333 1201.41 C 457.942 1196.68 463.09 1187.71 465.469 1183.66 C 499.137 1126.32 534.252 1069.86 568.508 1012.86 C 583.903 986.825 599.596 960.962 615.584 935.281 C 621.053 926.493 631.417 908.734 637.407 901.915 C 645.186 902.832 651.873 903.297 659.301 905.84 C 608.682 987.843 558.818 1070.31 509.714 1153.23 C 511.61 1157.14 511.577 1165.35 510.455 1169.32 C 506.806 1166.9 507.826 1165.22 503.198 1163.84 C 499.57 1168.88 492.136 1182.26 488.108 1188.48 C 533.113 1188.87 578.121 1188.93 623.128 1188.68 L 838.658 1188.69 C 874.456 1188.62 922.117 1187.59 959.025 1189.51 C 961.281 1189.62 973.174 1204.41 976.544 1207.55 C 1001.2 1230.55 1046.58 1231.49 1071.13 1207.82 C 1075.75 1203.37 1085.85 1189.29 1092.04 1188.99 C 1106.05 1188.32 1120.61 1188.59 1134.68 1188.63 L 1222.27 1188.69 C 1334.39 1188.66 1448.21 1189.76 1560.21 1188.53 C 1544.9 1160.14 1521.86 1123.69 1504.89 1095.79 L 1421.71 956.789 C 1411.31 939.135 1400.1 921.303 1390.15 903.502 z"/>
<path transform="translate(0,0)" fill="rgb(78,52,171)" d="M 509.714 1153.23 C 511.61 1157.14 511.577 1165.35 510.455 1169.32 C 506.806 1166.9 507.826 1165.22 503.198 1163.84 L 509.714 1153.23 z"/>
<path transform="translate(0,0)" fill="rgb(252,252,252)" d="M 700.756 1328.41 C 712.823 1328.23 724.893 1328.27 736.96 1328.53 C 740.316 1334.95 743.318 1342.42 746.189 1349.14 L 748.76 1353.94 C 752.928 1363.32 757.212 1372.65 761.609 1381.92 L 764.409 1387.59 C 772.995 1407.87 783.362 1429.72 792.873 1449.67 L 797.353 1459.4 C 800.073 1465.41 808.388 1482.53 810.217 1487.88 L 812.527 1491.78 C 813.934 1496.99 825.988 1522.28 828.673 1528.13 C 816.649 1528.36 804.626 1528.67 792.605 1529.05 C 784.843 1513.13 777.816 1496.78 769.895 1481 L 705.154 1481.23 C 695.764 1481.25 677.764 1481.75 669.175 1480.48 C 665.809 1482.82 666.771 1482.36 664.773 1486.64 C 659.551 1500.06 652.015 1515.44 646.115 1528.97 C 634.212 1528.85 621.867 1528.95 610.033 1528.01 C 619.856 1504.93 631.099 1481.45 641.518 1458.63 C 652.784 1433.39 664.227 1408.24 675.846 1383.16 L 678.389 1377.47 C 683.306 1365 694.841 1340.4 700.756 1328.41 z"/>
<path transform="translate(0,0)" fill="rgb(109,74,226)" d="M 718.662 1363.74 C 722.257 1371.99 725.959 1380.97 729.737 1389.07 L 739.889 1411.81 L 741.503 1416.15 C 744.713 1423.26 749.218 1433.65 752.922 1440.36 L 753.337 1442.04 C 754.666 1444.11 757.166 1449.81 758.342 1452.3 C 732.475 1451.96 705.88 1452.34 679.858 1452.14 C 681.471 1447.53 682.102 1445.95 684.492 1441.71 L 702.564 1400.98 C 703.572 1397.64 708.913 1386.1 710.612 1382.83 C 713.295 1375.75 715.381 1370.54 718.662 1363.74 z"/>
<path transform="translate(0,0)" fill="rgb(109,74,226)" d="M 684.492 1441.71 L 687.806 1440.26 C 705.018 1442.77 734.997 1442.12 753.337 1442.04 C 754.666 1444.11 757.166 1449.81 758.342 1452.3 C 732.475 1451.96 705.88 1452.34 679.858 1452.14 C 681.471 1447.53 682.102 1445.95 684.492 1441.71 z"/>
<path transform="translate(0,0)" fill="rgb(92,64,189)" d="M 702.564 1400.98 C 702.889 1405.79 703.046 1409.73 703.049 1414.54 C 700.591 1416.88 700.105 1416.35 700.207 1419.22 C 700.472 1426.66 701.218 1433.1 700.969 1440.61 C 697.208 1440.39 691.372 1439.87 687.806 1440.26 L 684.492 1441.71 L 702.564 1400.98 z"/>
<path transform="translate(0,0)" fill="rgb(78,52,171)" d="M 718.662 1363.74 C 722.257 1371.99 725.959 1380.97 729.737 1389.07 L 723.018 1391.73 C 722.167 1388.99 721.884 1387.29 721.391 1384.51 C 718.703 1382.41 720.272 1383.02 716.3 1383.28 L 716.559 1380.36 L 715.565 1379.44 C 713.969 1380.71 712.416 1381.88 710.612 1382.83 C 713.295 1375.75 715.381 1370.54 718.662 1363.74 z"/>
<path transform="translate(0,0)" fill="rgb(78,52,171)" d="M 700.969 1440.61 C 701.218 1433.1 700.472 1426.66 700.207 1419.22 C 700.105 1416.35 700.591 1416.88 703.049 1414.54 C 703.019 1423.3 703.06 1432.07 703.171 1440.83 C 715.475 1441.1 727.784 1440.82 740.061 1439.97 C 743.75 1439.99 749.442 1439.83 752.922 1440.36 L 753.337 1442.04 C 734.997 1442.12 705.018 1442.77 687.806 1440.26 C 691.372 1439.87 697.208 1440.39 700.969 1440.61 z"/>
<path transform="translate(0,0)" fill="rgb(78,52,171)" d="M 716.3 1383.28 C 720.272 1383.02 718.703 1382.41 721.391 1384.51 C 721.884 1387.29 722.167 1388.99 723.018 1391.73 L 722.976 1392.77 C 722.088 1395.1 721.213 1397.43 720.35 1399.76 C 719.296 1393.9 717.326 1389.22 716.3 1383.28 z"/>
<path transform="translate(0,0)" fill="rgb(78,52,171)" d="M 739.889 1411.81 L 741.503 1416.15 C 737.458 1421.42 738.753 1430.38 739.398 1437.05 C 735.341 1433.18 736.268 1417.34 739.889 1411.81 z"/>
<path transform="translate(0,0)" fill="rgb(78,52,171)" d="M 722.976 1392.77 C 723.049 1398.08 723.419 1401 721.877 1406.11 L 721.437 1406.13 C 720.844 1403.5 720.484 1402.48 720.35 1399.76 C 721.213 1397.43 722.088 1395.1 722.976 1392.77 z"/>
<path transform="translate(0,0)" fill="rgb(252,252,252)" d="M 1305.8 1432.33 C 1294.64 1426.46 1286.02 1421.54 1278.74 1410.67 C 1271.62 1399.83 1269.15 1386.59 1271.88 1373.91 C 1273.57 1365.99 1277.51 1358.67 1282.67 1352.52 C 1308.9 1321.24 1354.43 1322.84 1390.05 1331.11 L 1390.69 1329.72 C 1397.03 1330.92 1400.88 1325.75 1407.16 1329.81 C 1408.42 1333.03 1407.73 1332.5 1405.93 1336.92 C 1409.61 1338.8 1414.35 1341.05 1417.72 1343.28 C 1415.76 1348.94 1408.17 1368.78 1404.84 1372.95 C 1402.05 1374.64 1399.32 1374.42 1395.99 1374.62 C 1392.64 1373.05 1393.68 1374.26 1392.38 1371.25 L 1394.38 1366.37 C 1373.16 1356.63 1349.05 1351.94 1326.24 1359.53 C 1311.37 1364.48 1299.72 1381.61 1312.21 1395.34 C 1313.86 1394.81 1316.23 1394.41 1317.98 1394.05 C 1322.58 1392.95 1322.88 1392.88 1327.53 1393.19 L 1328.69 1394.43 L 1327.84 1395.99 C 1325.77 1400.1 1325.66 1398.83 1326.13 1402.72 L 1327.89 1404.66 C 1357.21 1415.63 1407.43 1419.58 1420.86 1448.34 C 1427.42 1462.76 1427.86 1479.22 1422.08 1493.98 C 1400.97 1546.33 1302.7 1537.8 1266.35 1504.79 C 1270.83 1494.88 1275.75 1486.37 1280.15 1476.99 C 1287.02 1481.96 1293.85 1487.14 1301.55 1490.76 C 1314.44 1484.53 1362.3 1490.58 1380.63 1487.04 C 1379.77 1481.45 1380.29 1463.42 1379.97 1455.74 C 1377.42 1454.15 1374.61 1452.96 1371.87 1451.69 C 1366.83 1449.49 1364.43 1448.92 1359.16 1447.57 C 1352.54 1444.25 1325.23 1438.33 1315.89 1435.65 C 1312.73 1434.39 1309.09 1433.35 1305.8 1432.33 z"/>
<path transform="translate(0,0)" fill="rgb(78,52,171)" d="M 1380.63 1487.04 L 1386.05 1487.43 C 1369.29 1507.81 1322.52 1501.07 1301.55 1490.76 C 1314.44 1484.53 1362.3 1490.58 1380.63 1487.04 z"/>
<path transform="translate(0,0)" fill="rgb(92,64,189)" d="M 1379.97 1455.74 C 1387.66 1462.62 1388.15 1464.5 1391.28 1474.27 C 1390.19 1478.51 1388.88 1483.99 1386.05 1487.43 L 1380.63 1487.04 C 1379.77 1481.45 1380.29 1463.42 1379.97 1455.74 z"/>
<path transform="translate(0,0)" fill="rgb(78,52,171)" d="M 1317.98 1394.05 C 1322.58 1392.95 1322.88 1392.88 1327.53 1393.19 L 1328.69 1394.43 L 1327.84 1395.99 C 1325.77 1400.1 1325.66 1398.83 1326.13 1402.72 L 1327.89 1404.66 C 1321.37 1401.78 1317.72 1399.78 1312.21 1395.34 C 1313.86 1394.81 1316.23 1394.41 1317.98 1394.05 z"/>
<path transform="translate(0,0)" fill="rgb(78,52,171)" d="M 1317.98 1394.05 C 1322.58 1392.95 1322.88 1392.88 1327.53 1393.19 L 1328.69 1394.43 L 1327.84 1395.99 C 1322.92 1396.04 1322.16 1396.39 1317.98 1394.05 z"/>
<path transform="translate(0,0)" fill="rgb(78,52,171)" d="M 1390.05 1331.11 L 1390.69 1329.72 C 1397.03 1330.92 1400.88 1325.75 1407.16 1329.81 C 1408.42 1333.03 1407.73 1332.5 1405.93 1336.92 L 1390.05 1331.11 z"/>
<path transform="translate(0,0)" fill="rgb(78,52,171)" d="M 1394.38 1366.37 C 1398 1368.4 1401.74 1370.24 1404.84 1372.95 C 1402.05 1374.64 1399.32 1374.42 1395.99 1374.62 C 1392.64 1373.05 1393.68 1374.26 1392.38 1371.25 L 1394.38 1366.37 z"/>
<path transform="translate(0,0)" fill="rgb(252,252,252)" d="M 916.065 1331.96 C 944.565 1324.28 967.363 1323.55 995.891 1332.49 C 998.925 1333.65 1002.61 1334.95 1005.54 1336.25 C 1018.16 1342.73 1025.05 1347.92 1034.72 1358.48 C 1027.33 1367.28 1018.76 1373.65 1010.68 1381.66 C 1009.52 1380.27 1005.88 1375.72 1004.72 1374.84 C 1000.31 1376.94 995.895 1377.25 993.067 1372.92 L 995.115 1367.34 C 968.677 1351.28 939.419 1352.97 913.32 1369.12 C 911.006 1370.96 907.504 1373.58 905.605 1375.64 C 900.719 1379.91 896.59 1384.97 893.395 1390.61 C 895.281 1395.41 895.043 1396.02 894.898 1401.34 C 895.014 1410.7 896.785 1461.89 893.623 1466.97 C 899.084 1476.03 908.395 1486.15 918.108 1490.61 C 925.399 1486.69 985.637 1486.16 991.992 1491.26 C 999.974 1486.58 1005.65 1480.26 1012.22 1473.73 C 1019.46 1480.23 1029.11 1488.43 1035.7 1495.29 C 1026.21 1510.75 1002.95 1524.77 985.337 1528.27 C 942.776 1536.73 909.285 1529.64 876.759 1501.57 C 874.304 1502.79 867.691 1503.29 864.577 1503.68 L 863.255 1491.55 L 865.034 1491.97 L 865.402 1491.28 C 863.704 1489.18 863.03 1488.27 861.606 1485.99 L 862.63 1483.94 C 860.492 1480.04 858.176 1475.82 856.412 1471.75 C 845.112 1445.46 844.676 1415.76 855.201 1389.14 C 865.259 1363.72 884.285 1345.42 909.11 1334.61 L 916.065 1331.96 z"/>
<path transform="translate(0,0)" fill="rgb(78,52,171)" d="M 918.108 1490.61 C 925.399 1486.69 985.637 1486.16 991.992 1491.26 C 987.095 1493.95 981.904 1496.06 976.522 1497.56 C 957.884 1502.58 934.956 1500.34 918.108 1490.61 z"/>
<path transform="translate(0,0)" fill="rgb(92,64,189)" d="M 892.817 1407.71 L 894.898 1401.34 C 895.014 1410.7 896.785 1461.89 893.623 1466.97 C 892.017 1464.3 890.484 1460.97 889.084 1458.12 C 881.734 1440.7 882.166 1424.88 886.173 1406.86 L 892.817 1407.71 z"/>
<path transform="translate(0,0)" fill="rgb(78,52,171)" d="M 892.817 1407.71 L 894.898 1401.34 C 895.014 1410.7 896.785 1461.89 893.623 1466.97 C 892.017 1464.3 890.484 1460.97 889.084 1458.12 C 894.7 1449.73 892.944 1418.43 892.817 1407.71 z"/>
<path transform="translate(0,0)" fill="rgb(78,52,171)" d="M 862.63 1483.94 C 866.8 1489.55 872 1496.57 876.759 1501.57 C 874.304 1502.79 867.691 1503.29 864.577 1503.68 L 863.255 1491.55 L 865.034 1491.97 L 865.402 1491.28 C 863.704 1489.18 863.03 1488.27 861.606 1485.99 L 862.63 1483.94 z"/>
<path transform="translate(0,0)" fill="rgb(78,52,171)" d="M 893.395 1390.61 C 895.281 1395.41 895.043 1396.02 894.898 1401.34 L 892.817 1407.71 L 886.173 1406.86 C 888.577 1400.47 889.925 1396.5 893.395 1390.61 z"/>
<path transform="translate(0,0)" fill="rgb(78,52,171)" d="M 995.115 1367.34 C 998.47 1369.74 1001.83 1371.91 1004.72 1374.84 C 1000.31 1376.94 995.895 1377.25 993.067 1372.92 L 995.115 1367.34 z"/>
<path transform="translate(0,0)" fill="rgb(252,252,252)" d="M 1065.63 1328.79 C 1121.9 1328.5 1178.18 1328.55 1234.45 1328.93 L 1234.51 1358.01 L 1169.3 1358.02 L 1169.22 1460.75 C 1169.3 1483.3 1169.24 1505.84 1169.02 1528.39 C 1157.82 1528.78 1145.66 1528.42 1134.38 1528.31 C 1134.71 1472.32 1135.34 1413.91 1134.28 1358.06 L 1065.62 1358.23 L 1065.63 1328.79 z"/>
<path transform="translate(0,0)" fill="rgb(252,252,252)" d="M 638.346 1170.84 C 648.45 1166.52 680.799 1159.96 693.057 1157.14 C 766.403 1140.3 821.113 1125.12 896.035 1140.65 L 917.927 1146.59 C 938.873 1155.09 958.163 1163.08 973.617 1180.33 C 960.064 1173.59 948.675 1168.35 933.804 1164.38 C 927.646 1167.48 898.79 1169.41 895.541 1165.73 C 900.779 1165.42 909.302 1165.19 912.459 1160.58 L 911.608 1159.83 C 905.511 1159.34 904.015 1158.92 898.85 1155.6 C 892.231 1153.07 878.662 1151.57 871.409 1150.66 C 803.997 1142.18 738.816 1164.73 672.14 1168.2 C 660.854 1168.79 649.648 1170.24 638.346 1170.84 z"/>
<path transform="translate(0,0)" fill="rgb(78,52,171)" d="M 898.85 1155.6 C 908.667 1156.99 924.556 1160.79 933.804 1164.38 C 927.646 1167.48 898.79 1169.41 895.541 1165.73 C 900.779 1165.42 909.302 1165.19 912.459 1160.58 L 911.608 1159.83 C 905.511 1159.34 904.015 1158.92 898.85 1155.6 z"/>
<path transform="translate(0,0)" fill="rgb(252,252,252)" d="M 1075.34 1179.28 C 1124.21 1131.1 1203.48 1130.47 1267 1138.57 L 1315.01 1147.65 L 1402.74 1167.44 C 1406.39 1168.35 1408.11 1168.77 1411.56 1170.18 C 1405.3 1170.05 1398.64 1170.2 1392.55 1169.05 C 1368.56 1169.44 1335.81 1164.09 1311.81 1159.96 C 1216.68 1143.62 1165.14 1142.39 1075.34 1179.28 z"/>
<path transform="translate(0,0)" fill="rgb(231,222,255)" d="M 1402.74 1167.44 C 1406.39 1168.35 1408.11 1168.77 1411.56 1170.18 C 1405.3 1170.05 1398.64 1170.2 1392.55 1169.05 C 1396.64 1168.8 1399.02 1168.97 1402.74 1167.44 z"/>
<path transform="translate(0,0)" fill="rgb(252,252,252)" d="M 1392.82 1588.69 C 1392.71 1583.55 1392.05 1576.36 1393.61 1571.75 C 1396.43 1569.38 1394.74 1570.23 1399.32 1570.17 C 1403.16 1573.5 1401.16 1600.89 1401.4 1607.75 C 1401.41 1613.87 1402.29 1619.8 1400.07 1625.05 C 1397.8 1626.67 1397.36 1626.44 1394.51 1626.87 C 1390.53 1629.45 1388.49 1629.3 1383.62 1629.97 C 1374.05 1630.21 1363.33 1630.62 1353.79 1629.83 C 1350.54 1629.57 1351.05 1629.18 1349.38 1626.8 L 1351.88 1623.42 L 1352.54 1616.13 C 1351.95 1608.16 1352.26 1593.47 1352.2 1585.03 C 1358.29 1584.78 1368.29 1583.92 1373.7 1586.16 C 1382.15 1585.25 1384.74 1585.91 1392.82 1588.69 z"/>
<path transform="translate(0,0)" fill="rgb(78,52,171)" d="M 1361.6 1614.17 C 1369.2 1629.67 1378.29 1626.23 1392.89 1624.12 C 1393.43 1625.04 1393.97 1625.96 1394.51 1626.87 C 1390.53 1629.45 1388.49 1629.3 1383.62 1629.97 C 1374.05 1630.21 1363.33 1630.62 1353.79 1629.83 C 1350.54 1629.57 1351.05 1629.18 1349.38 1626.8 L 1351.88 1623.42 L 1352.54 1616.13 C 1355.65 1615.9 1358.57 1614.97 1361.6 1614.17 z"/>
<path transform="translate(0,0)" fill="rgb(78,52,171)" d="M 1352.2 1585.03 C 1358.29 1584.78 1368.29 1583.92 1373.7 1586.16 C 1360.87 1592.6 1358.38 1600.37 1361.6 1614.17 C 1358.57 1614.97 1355.65 1615.9 1352.54 1616.13 C 1351.95 1608.16 1352.26 1593.47 1352.2 1585.03 z"/>
<path transform="translate(0,0)" fill="rgb(92,64,189)" d="M 1374.77 1595.21 C 1396.33 1581.96 1402.42 1626.95 1374.44 1617.19 L 1372.24 1614.85 C 1367.42 1607.39 1368.85 1601.19 1374.77 1595.21 z"/>
<path transform="translate(0,0)" fill="rgb(78,52,171)" d="M 1374.77 1595.21 C 1375.03 1601.7 1373.53 1605.72 1374.08 1614.25 L 1372.24 1614.85 C 1367.42 1607.39 1368.85 1601.19 1374.77 1595.21 z"/>
<path transform="translate(0,0)" fill="rgb(252,252,252)" d="M 754.279 1586.49 C 760.872 1585.6 769.405 1583.33 775.367 1586.02 C 777.134 1590.48 775.868 1621.28 775.711 1628.41 L 775.54 1628.63 C 768.146 1629.26 755.65 1631.79 750.199 1626.44 C 741.612 1627.77 733.11 1623.6 728.894 1616.01 C 724.677 1608.41 725.639 1598.99 731.304 1592.4 C 736.968 1585.82 746.137 1583.46 754.279 1586.49 z"/>
<path transform="translate(0,0)" fill="rgb(78,52,171)" d="M 754.279 1586.49 C 760.872 1585.6 769.405 1583.33 775.367 1586.02 C 777.134 1590.48 775.868 1621.28 775.711 1628.41 L 775.54 1628.63 C 768.146 1629.26 755.65 1631.79 750.199 1626.44 C 759.535 1625 766.721 1617.44 767.681 1608.04 C 768.641 1598.65 763.132 1589.79 754.279 1586.49 z"/>
<path transform="translate(0,0)" fill="rgb(109,74,226)" d="M 743.247 1594.03 C 749.936 1591.97 757.018 1595.76 759.024 1602.47 C 761.029 1609.17 757.191 1616.22 750.472 1618.18 C 743.822 1620.12 736.854 1616.33 734.869 1609.69 C 732.884 1603.05 736.625 1596.06 743.247 1594.03 z"/>
<path transform="translate(0,0)" fill="rgb(252,252,252)" d="M 1445.86 1586.21 C 1456.75 1582.69 1468.43 1588.64 1472 1599.51 C 1475.57 1610.39 1469.67 1622.1 1458.81 1625.72 C 1451.05 1628.31 1442.49 1626.09 1436.94 1620.07 C 1432.14 1614.85 1430.33 1607.55 1432.14 1600.7 C 1433.94 1593.85 1439.11 1588.39 1445.86 1586.21 z"/>
<path transform="translate(0,0)" fill="rgb(92,64,189)" d="M 1448.14 1593.78 C 1454.58 1591.6 1461.58 1594.89 1464.04 1601.22 C 1466.49 1607.56 1463.52 1614.7 1457.3 1617.43 C 1453.03 1619.31 1448.07 1618.69 1444.39 1615.81 C 1440.7 1612.94 1438.9 1608.28 1439.68 1603.67 C 1440.47 1599.07 1443.72 1595.27 1448.14 1593.78 z"/>
<path transform="translate(0,0)" fill="rgb(252,252,252)" d="M 1051.35 1581.67 L 1050.32 1581.53 C 1044.49 1580.83 1038.96 1582.18 1035.22 1580.14 C 1033.14 1577.1 1033.52 1578.71 1033.82 1575.21 C 1037.04 1572.79 1071.71 1573.75 1077.11 1574.58 C 1078.83 1577.47 1078.41 1575.91 1078.11 1579.49 C 1075.59 1582.02 1070.99 1581.3 1066.62 1581.31 L 1060.55 1581.31 C 1060.67 1588.3 1062.14 1621.43 1059.51 1624.85 C 1056.4 1625.76 1055.34 1626 1052.14 1626.49 C 1049.48 1631.43 1045.66 1632.92 1040.47 1629.85 C 1039.41 1624.61 1039.83 1590.97 1039.87 1583.15 C 1042.42 1581.84 1048.23 1581.86 1051.35 1581.67 z"/>
<path transform="translate(0,0)" fill="rgb(78,52,171)" d="M 1052.14 1626.49 C 1049.48 1631.43 1045.66 1632.92 1040.47 1629.85 C 1039.41 1624.61 1039.83 1590.97 1039.87 1583.15 C 1042.42 1581.84 1048.23 1581.86 1051.35 1581.67 C 1051.18 1588.69 1049.76 1621.54 1052.14 1626.49 z"/>
<path transform="translate(0,0)" fill="rgb(252,252,252)" d="M 1176.73 1626.04 C 1174.22 1626.03 1171.81 1625.84 1169.32 1625.68 C 1166.8 1623.1 1166.76 1573.17 1169.65 1570.31 C 1173.81 1570.15 1172.11 1569.52 1175.11 1571.65 C 1177.21 1576 1176.49 1584.36 1176.53 1589.78 C 1211.92 1572.23 1209.85 1619.75 1202.08 1626.58 L 1199.78 1626.4 C 1192.23 1617.33 1202.49 1606.05 1192.98 1594.35 C 1191.34 1594.84 1188.75 1595.17 1188.33 1596.41 C 1185.39 1605.15 1186.87 1619.38 1185.93 1629.2 C 1183.28 1628.37 1179.05 1627.21 1176.73 1626.04 z"/>
<path transform="translate(0,0)" fill="rgb(78,52,171)" d="M 1176.73 1626.04 C 1176.91 1613.25 1171.6 1586.89 1192.98 1594.35 C 1191.34 1594.84 1188.75 1595.17 1188.33 1596.41 C 1185.39 1605.15 1186.87 1619.38 1185.93 1629.2 C 1183.28 1628.37 1179.05 1627.21 1176.73 1626.04 z"/>
<path transform="translate(0,0)" fill="rgb(252,252,252)" d="M 595.74 1573.31 C 598.66 1573.2 600.359 1572.87 603.057 1574.01 C 607.773 1578.86 625.191 1619.11 626.017 1624.35 C 623.825 1626.65 625.109 1625.7 621.669 1626.8 C 612.103 1622.53 620.312 1614.13 604.211 1613.89 L 587.348 1613.9 C 585.383 1618.23 584.011 1622.24 580.776 1625.65 C 578.237 1625.88 576.411 1625.32 573.924 1624.79 C 573.697 1621.61 593.03 1579.18 595.74 1573.31 z"/>
<path transform="translate(0,0)" fill="rgb(78,52,171)" d="M 599.236 1584.68 C 603.135 1589.11 608.228 1598.5 608.17 1605.04 C 605.934 1607.39 606.407 1606.62 602.024 1606.89 C 598.341 1606.76 594.281 1606.35 590.573 1606.06 C 593.387 1597.91 595.637 1592.55 599.236 1584.68 z"/>
<path transform="translate(0,0)" fill="rgb(252,252,252)" d="M 1120.65 1621.94 C 1124.79 1614.49 1117.62 1608.95 1119.96 1601.44 C 1120.82 1598.68 1125.51 1590.93 1127.14 1588.12 C 1124.54 1589.65 1121.14 1592.18 1118.42 1592.1 C 1115.71 1590.03 1115.63 1590.22 1113.97 1587.3 L 1114.57 1585.39 L 1117.47 1584.4 C 1125.25 1586.07 1125.41 1582.79 1131.33 1588.39 C 1142.37 1584.56 1148.89 1583.53 1157.48 1592.01 C 1158.24 1594.79 1158.25 1593.4 1157.14 1596.3 C 1150.76 1598.65 1145.67 1591.64 1140.05 1593.03 C 1128.98 1595.76 1127.05 1614.82 1138.83 1617.94 C 1148.7 1620.55 1150.64 1609.4 1159.93 1617.45 L 1162.73 1613.65 C 1162.39 1619.84 1156.97 1625.15 1151.11 1626.7 C 1155.76 1627.86 1156.43 1628.16 1161.12 1628.01 C 1159.17 1629.55 1134.24 1629.85 1130.79 1628.92 C 1127.04 1629.19 1122.11 1630.18 1119.24 1628.24 C 1117.96 1624.48 1118.34 1625.69 1119.38 1621.24 L 1120.65 1621.94 z"/>
<path transform="translate(0,0)" fill="rgb(78,52,171)" d="M 1120.65 1621.94 C 1124.79 1614.49 1117.62 1608.95 1119.96 1601.44 C 1120.82 1598.68 1125.51 1590.93 1127.14 1588.12 C 1124.54 1589.65 1121.14 1592.18 1118.42 1592.1 C 1115.71 1590.03 1115.63 1590.22 1113.97 1587.3 L 1114.57 1585.39 L 1117.47 1584.4 C 1125.25 1586.07 1125.41 1582.79 1131.33 1588.39 C 1125.77 1593.37 1122.08 1597.42 1121.77 1605.37 C 1121.53 1610.7 1123.49 1615.89 1127.17 1619.75 C 1131.2 1624 1136.81 1626.39 1142.66 1626.34 C 1149.99 1626.22 1155.4 1623.04 1159.93 1617.45 L 1162.73 1613.65 C 1162.39 1619.84 1156.97 1625.15 1151.11 1626.7 C 1155.76 1627.86 1156.43 1628.16 1161.12 1628.01 C 1159.17 1629.55 1134.24 1629.85 1130.79 1628.92 C 1127.04 1629.19 1122.11 1630.18 1119.24 1628.24 C 1117.96 1624.48 1118.34 1625.69 1119.38 1621.24 L 1120.65 1621.94 z"/>
<path transform="translate(0,0)" fill="rgb(252,252,252)" d="M 1314.76 1618.75 C 1313.31 1612.85 1311.42 1591.8 1313.61 1587.39 C 1316.93 1585.51 1315.13 1586.09 1319.34 1586.09 C 1324.76 1591.95 1316.54 1615.73 1330.57 1619.61 C 1336.12 1618.48 1338.78 1616.3 1342.55 1612.07 C 1342.44 1605.04 1340.69 1591.25 1344.31 1586.58 C 1346.98 1585.7 1346.84 1585.83 1349.65 1586.23 C 1353.08 1590.3 1350.95 1615.15 1351.88 1623.42 L 1349.38 1626.8 C 1348.53 1626.62 1346.26 1626.99 1345.26 1627.1 C 1341.28 1629.25 1338.57 1629.77 1333.93 1629.72 C 1328.84 1629.99 1310.42 1631.92 1307.91 1627.01 C 1310.74 1624.11 1311.96 1622.83 1314.26 1619.49 L 1314.76 1618.75 z"/>
<path transform="translate(0,0)" fill="rgb(78,52,171)" d="M 1333.93 1629.72 C 1328.84 1629.99 1310.42 1631.92 1307.91 1627.01 C 1310.74 1624.11 1311.96 1622.83 1314.26 1619.49 L 1314.76 1618.75 C 1318.61 1623.21 1320.13 1624.65 1325.8 1626.63 C 1329.23 1627.37 1331.27 1627.46 1333.93 1629.72 z"/>
<path transform="translate(0,0)" fill="rgb(92,64,189)" d="M 1325.8 1626.63 L 1327.17 1626.55 C 1333.12 1626.12 1337.22 1624.22 1342.43 1623.95 L 1345.26 1627.1 C 1341.28 1629.25 1338.57 1629.77 1333.93 1629.72 C 1331.27 1627.46 1329.23 1627.37 1325.8 1626.63 z"/>
<path transform="translate(0,0)" fill="rgb(252,252,252)" d="M 1226.45 588.269 C 1239.72 588.166 1281.5 585.495 1290.1 592.301 C 1292.69 598.164 1290.78 600.776 1285.41 603.48 C 1267.59 603.568 1248.4 604.291 1230.59 603.125 C 1225.31 602.779 1220.27 600.926 1220.37 594.906 C 1222.55 590.982 1222.7 590.902 1226.45 588.269 z"/>
<path transform="translate(0,0)" fill="rgb(252,252,252)" d="M 763.149 588.417 C 777.134 588.181 791.121 588.061 805.108 588.058 C 812.282 588.055 821.082 587.676 826.428 593.017 C 828.186 598.58 826.423 601.31 821.25 603.382 C 807.736 603.39 766.426 606.386 757.944 599.654 C 756.158 595.915 756.534 597.85 756.941 593.6 C 758.885 590.28 759.76 590.143 763.149 588.417 z"/>
<path transform="translate(0,0)" fill="rgb(252,252,252)" d="M 1090.25 1586.21 C 1102.78 1584.27 1113.98 1589.44 1116.27 1602.76 C 1112.89 1613.97 1095.38 1604.72 1086.32 1609.76 L 1086.02 1611.55 C 1090.48 1618.76 1094.66 1618.86 1102.74 1619.02 C 1106.66 1617.04 1107.47 1616.04 1111.5 1618.02 L 1111.96 1620.2 C 1108.2 1626.86 1099.37 1627.09 1092.65 1625.78 C 1080.78 1623.48 1074.33 1610.82 1077.67 1599.55 C 1079.93 1591.91 1083.58 1589.95 1090.25 1586.21 z"/>
<path transform="translate(0,0)" fill="rgb(78,52,171)" d="M 1093.01 1592.85 C 1098.63 1592.72 1104.86 1594.08 1106.53 1600.35 L 1105.53 1601.97 L 1102.25 1602.43 C 1097.18 1602.42 1091.54 1602.95 1087.07 1601.01 L 1086.38 1599.24 C 1087.89 1595.98 1090.04 1594.95 1093.01 1592.85 z"/>
<path transform="translate(0,0)" fill="rgb(252,252,252)" d="M 797.915 459.845 C 806.333 461.828 845.359 484.612 853.572 491.623 C 855.489 493.26 855.113 495.99 854.922 498.117 C 852.96 501.416 852.092 501.557 848.718 503.288 C 841.146 502.141 803.915 479.18 795.527 473.41 C 792.438 471.285 792.521 470.061 792.151 467.114 C 793.411 463.398 795 462.469 797.915 459.845 z"/>
<path transform="translate(0,0)" fill="rgb(252,252,252)" d="M 867.291 1586.11 C 870.256 1585.98 873.1 1585.88 876.064 1586.21 C 884.083 1587.1 894.342 1597.04 892.451 1605.37 C 885.444 1612.17 867.571 1604.62 862.163 1610.62 C 863.981 1617.9 872.823 1619.61 879.25 1618.32 C 883.281 1616.51 884.454 1615.51 888.032 1618.46 L 887.868 1620.71 C 880.504 1631.12 861.605 1626.65 855.683 1615.69 C 852.803 1610.42 852.274 1604.18 854.226 1598.51 C 856.726 1591.34 860.889 1589.14 867.291 1586.11 z"/>
<path transform="translate(0,0)" fill="rgb(78,52,171)" d="M 867.753 1592.95 C 873.349 1592.44 884.01 1594.62 882.051 1601.81 L 879.25 1602.23 C 874.521 1602.31 865.609 1603.53 862.698 1599.81 C 863.417 1596.49 865.244 1595.33 867.753 1592.95 z"/>
<path transform="translate(0,0)" fill="rgb(252,252,252)" d="M 1245.94 460.758 C 1250.8 460.356 1252.2 460.895 1255.42 464.164 C 1258.5 475.472 1213.23 497.203 1202.9 502.659 C 1198.59 503.07 1196.75 502.515 1193.92 499.26 C 1191.47 487.126 1234.67 467.07 1245.94 460.758 z"/>
<path transform="translate(0,0)" fill="rgb(252,252,252)" d="M 1251.78 1573.16 C 1261.06 1572.93 1264.62 1573.95 1272.58 1578.55 L 1272.16 1578.42 L 1273.42 1580.93 C 1263.04 1586.61 1248.64 1572.14 1244.98 1587.85 C 1249.01 1596.86 1272.26 1596.14 1274.6 1608.79 C 1276.94 1621.49 1266.7 1625.4 1256.55 1626.7 C 1247.41 1626.01 1241.01 1625.75 1234.22 1618.75 L 1234.55 1617.45 C 1244.63 1613.38 1256.47 1624.15 1265.37 1614.23 C 1269.06 1600.83 1223.79 1604.65 1238.22 1580.83 C 1241.43 1575.54 1246.23 1574.51 1251.78 1573.16 z"/>
<path transform="translate(0,0)" fill="rgb(252,252,252)" d="M 1021.6 333.869 C 1032.47 332.671 1032.78 342.799 1032.14 350.9 C 1031.13 363.765 1035.25 392.803 1027.84 402.047 C 1024.98 402.046 1021.82 402.12 1019.5 400.142 C 1014.91 396.239 1016.63 364.542 1016.65 357.265 C 1016.68 348.655 1015.13 340.292 1021.6 333.869 z"/>
<path transform="translate(0,0)" fill="rgb(252,252,252)" d="M 1150.87 367.748 C 1157.02 367.95 1159.04 368.576 1160.82 374.27 C 1159.51 382.015 1135.23 423.413 1129.37 429.308 C 1123.17 429.085 1121.26 428.996 1119.11 423.07 C 1120.09 415.395 1145.64 372.587 1150.87 367.748 z"/>
<path transform="translate(0,0)" fill="rgb(252,252,252)" d="M 892.38 367.829 C 898.456 368.041 901.095 370.876 903.914 376.256 C 911.768 391.25 924.071 406.368 928.837 422.45 C 929.484 424.632 925.542 428.219 924.078 429.689 C 922.763 429.5 919.531 428.953 918.769 428.242 C 911.186 421.169 888.978 382.129 887.272 374.179 C 888.608 370.248 888.806 371.035 892.38 367.829 z"/>
<path transform="translate(0,0)" fill="rgb(252,252,252)" d="M 1035.45 1067.25 C 1043.75 1058.98 1051.86 1053.8 1061.69 1047.41 C 1058.3 1065.56 1059.42 1059.31 1050.68 1070.83 C 1047.34 1075.22 1048.03 1103.63 1048 1111.26 L 1038 1119.61 L 1036.4 1118.74 L 1032.02 1113.48 C 1035.35 1102.49 1032.74 1081.35 1035.45 1067.25 z"/>
<path transform="translate(0,0)" fill="rgb(252,252,252)" d="M 696.703 1573.08 C 705.109 1572.6 714.359 1573.26 719.465 1580.67 C 719.604 1584.08 720.097 1582.61 718.015 1585.25 C 711.595 1586.72 693.503 1575.82 688.145 1585.76 C 677.693 1605.15 688.447 1622.22 710.335 1616.99 C 713.449 1614.38 713.971 1613.28 717.772 1614.05 C 719.88 1616.71 719.403 1615.21 719.025 1618.77 C 717.113 1621.78 715.117 1624.19 711.626 1625.24 C 686.877 1632.71 667.139 1610.23 678.089 1586.78 C 682.206 1577.96 688.421 1575.86 696.703 1573.08 z"/>
<path transform="translate(0,0)" fill="rgb(252,252,252)" d="M 901.063 1603.27 C 896.532 1592.27 897.782 1595.88 890.038 1586.73 L 890.391 1585.5 C 895.002 1584.78 896.514 1585.68 901.143 1587.14 C 910.646 1586.49 911.028 1590.73 920.104 1586.3 C 940.302 1576.44 942.157 1620.62 936.38 1625.86 C 932.641 1625.74 934.359 1626.24 931.107 1624.08 C 926.499 1614.88 935.27 1597.27 925.058 1594.02 C 903.531 1587.15 913.391 1617.28 909.487 1625.55 C 906.513 1626.44 906.042 1626.11 902.998 1625.65 C 899.997 1622.67 901.341 1608.79 901.063 1603.27 z"/>
<path transform="translate(0,0)" fill="rgb(78,52,171)" d="M 901.063 1603.27 C 896.532 1592.27 897.782 1595.88 890.038 1586.73 L 890.391 1585.5 C 895.002 1584.78 896.514 1585.68 901.143 1587.14 L 901.063 1603.27 z"/>
<path transform="translate(0,0)" fill="rgb(252,252,252)" d="M 985.584 1587.29 C 992.788 1585.56 1005.62 1582.08 1008.25 1591.44 L 1006.76 1596.29 L 1005.81 1599.54 C 1003.24 1600.9 1002.49 1601.17 1000.83 1603.55 C 1008.24 1606.07 1013.02 1609.42 1009.88 1618.32 C 1006.38 1628.26 980.528 1629.49 978.853 1619.43 C 984.17 1611.7 998.543 1624.99 1002.01 1614.93 C 996.733 1606.21 982.788 1611.38 978.121 1599.14 C 979.67 1592.51 980.296 1591.7 985.584 1587.29 z"/>
<path transform="translate(0,0)" fill="rgb(78,52,171)" d="M 1000.83 1603.55 C 995.224 1602.87 991.237 1602.68 988.648 1597.47 C 991.898 1589.28 1001.19 1593.2 1006.76 1596.29 L 1005.81 1599.54 C 1003.24 1600.9 1002.49 1601.17 1000.83 1603.55 z"/>
<path transform="translate(0,0)" fill="rgb(252,252,252)" d="M 776.866 1585.99 C 783.861 1586.12 781.105 1585.16 786.035 1589.22 C 796.134 1585.64 809.036 1582.54 812.981 1595.91 C 815.287 1603.74 816.974 1615.28 813.631 1623.06 C 812.578 1625.5 810.478 1625.65 808.303 1626.13 L 806.65 1625.02 C 805.775 1618.94 806.022 1611.04 806.023 1604.75 C 805.661 1597.18 803.084 1591.85 794.429 1593.1 C 779.572 1595.25 789.05 1619.17 783.859 1625.87 C 781.012 1626.15 780.207 1626.55 777.673 1625.31 C 775.917 1622.13 776.833 1592.02 776.866 1585.99 z"/>
<path transform="translate(0,0)" fill="rgb(252,252,252)" d="M 951.735 1577.14 C 955.15 1576.8 956.781 1576.29 959.853 1577.78 C 960.56 1580.74 960.387 1579.79 960.21 1582.92 C 963.153 1586.32 964.666 1585.69 969.041 1585.67 C 971.243 1587.39 970.512 1586.3 971.193 1589.12 L 972.571 1586.36 C 975.188 1585.28 982.3 1586.96 985.584 1587.29 C 980.296 1591.7 979.67 1592.51 978.121 1599.14 L 977.071 1600.12 C 972.504 1597.06 969.56 1594.08 964.519 1594.54 C 963.327 1597.39 962.927 1599.05 960.998 1601.34 C 960.891 1605.61 960.208 1612 961.893 1615.6 C 967.629 1617.49 967.092 1615.87 972.469 1619.61 C 973.189 1622.98 973.206 1621.21 971.283 1625.05 C 968.142 1627.41 957.458 1626.86 954.988 1622.49 C 951.668 1616.61 952.846 1610.13 952.17 1603.83 C 952.616 1596.77 953.955 1594.98 947.76 1591.64 C 946.396 1589.67 946.73 1588.37 947.606 1586.55 L 950.163 1585.7 L 951.283 1585.02 C 952.738 1581.81 952.037 1581.21 951.735 1577.14 z"/>
<path transform="translate(0,0)" fill="rgb(78,52,171)" d="M 971.193 1589.12 L 972.571 1586.36 C 975.188 1585.28 982.3 1586.96 985.584 1587.29 C 980.296 1591.7 979.67 1592.51 978.121 1599.14 L 977.071 1600.12 C 972.504 1597.06 969.56 1594.08 964.519 1594.54 C 963.327 1597.39 962.927 1599.05 960.998 1601.34 C 960.774 1597.06 959.99 1595.88 963.07 1593.21 C 968.219 1593.08 969.52 1593.99 971.193 1589.12 z"/>
<path transform="translate(0,0)" fill="rgb(252,252,252)" d="M 1285.16 1576.3 C 1288.3 1576.14 1290.04 1575.66 1292.61 1577.36 C 1292.38 1589.63 1298.61 1583.09 1303.73 1586.97 C 1303.88 1591.23 1304.61 1589.79 1302.85 1592.72 C 1299.88 1593.13 1298.08 1593.24 1295.13 1593.39 C 1292.95 1597.02 1294.07 1605.74 1293.97 1610.04 C 1293.69 1622.9 1301.12 1615.31 1306.62 1622.4 C 1303.28 1625.53 1300.92 1626.64 1296.75 1626.46 C 1277.64 1625.64 1288.51 1603.52 1284.04 1593.12 C 1283.24 1591.26 1282.85 1594.63 1279.41 1590.86 C 1279.28 1588.18 1278.89 1587.71 1280.3 1585.58 L 1283.48 1585.23 C 1285.65 1583.22 1285 1580.08 1285.16 1576.3 z"/>
<path transform="translate(0,0)" fill="rgb(252,252,252)" d="M 827.88 1577.29 C 828.928 1577.24 829.977 1577.21 831.026 1577.19 C 839.558 1577.11 832.95 1580.24 838.086 1585.19 C 841.204 1585.46 841.873 1585.43 844.949 1586.32 C 846.097 1589.16 846.156 1587.78 845.337 1590.5 C 833.313 1597.47 835.268 1603.03 837.763 1615.4 C 842.404 1620.78 844.677 1614.45 848.345 1623.81 C 844.82 1625.69 836.711 1627.39 833.265 1624.7 C 825.052 1618.27 829.875 1602 826.722 1593.37 C 827.165 1594.58 822.582 1592.32 821.334 1590.91 C 821.046 1586.8 820.345 1588.09 822.005 1585.46 L 826.433 1584.91 C 828.484 1582.62 827.737 1581.31 827.88 1577.29 z"/>
<path transform="translate(0,0)" fill="rgb(252,252,252)" d="M 634.93 1573.05 C 638.588 1572.95 641.229 1572.51 643.559 1574.63 C 644.858 1586.02 644.071 1613.48 644.042 1626.06 C 640.771 1626.06 637.243 1626.5 635.194 1624.46 C 633.558 1611.5 634.349 1586.43 634.93 1573.05 z"/>
<path transform="translate(0,0)" fill="rgb(252,252,252)" d="M 1413.94 1586.84 C 1417.39 1586.5 1418.71 1586.06 1421.88 1587.49 C 1423.34 1592.94 1422.65 1618.58 1422.59 1625.87 C 1418.29 1625.93 1417.66 1626.63 1414.39 1624.89 C 1413.29 1616.86 1413.88 1595.97 1413.94 1586.84 z"/>
<path transform="translate(0,0)" fill="rgb(231,222,255)" d="M 1019.44 1114.37 C 1023.24 1114.5 1028.15 1113.85 1032.02 1113.48 L 1036.4 1118.74 L 1038 1119.61 C 1033.38 1123.78 1028.87 1128.07 1024.47 1132.47 C 1019.11 1128.03 1012.4 1121.37 1007.2 1116.5 C 1011.1 1115.74 1013.88 1115.28 1017.64 1114.03 L 1019.44 1114.37 z"/>
<path transform="translate(0,0)" fill="rgb(186,185,185)" d="M 1019.44 1114.37 C 1023.24 1114.5 1028.15 1113.85 1032.02 1113.48 L 1036.4 1118.74 C 1030.65 1122.36 1022.4 1121.24 1019.44 1114.37 z"/>
<path transform="translate(0,0)" fill="rgb(78,52,171)" d="M 827.566 1072.44 C 833.675 1072.24 873.518 1072.03 877.776 1074.05 C 869.652 1075.58 861.977 1075.4 853.746 1075.48 C 844.862 1076.13 808.379 1076.4 800.531 1074.32 C 803.259 1072.42 822.735 1072.58 827.566 1072.44 z"/>
<path transform="translate(0,0)" fill="rgb(78,52,171)" d="M 1267 1138.57 C 1286.56 1139.14 1325.55 1131.09 1340.27 1136.04 C 1330.56 1136.73 1320.41 1137.44 1310.83 1139.11 C 1303.67 1140.36 1292.82 1136.71 1287.18 1139.09 L 1286.22 1140.39 C 1289.69 1140.51 1312.75 1145.37 1314.86 1147.32 L 1315.01 1147.65 L 1267 1138.57 z"/>
<path transform="translate(0,0)" fill="rgb(78,52,171)" d="M 952.17 1603.83 C 951.739 1609.64 953.135 1614.49 947.682 1617.62 C 941.902 1614.32 941.416 1601.75 943.555 1596.06 C 945.047 1592.08 944.01 1593.54 947.76 1591.64 C 953.955 1594.98 952.616 1596.77 952.17 1603.83 z"/>
<path transform="translate(0,0)" fill="rgb(78,52,171)" d="M 639.828 1149.82 C 645.065 1148.61 652.008 1146.42 657.321 1144.93 C 663.93 1150.14 677.249 1149.55 685.845 1150.65 L 685.639 1151.8 C 674.849 1153.26 648.648 1155.69 639.828 1149.82 z"/>
<path transform="translate(0,0)" fill="rgb(78,52,171)" d="M 1212.15 1582.68 C 1213.94 1583.73 1213.31 1583.3 1214.63 1585.07 C 1215.62 1594.53 1216.08 1618.74 1214.39 1628.28 L 1212.18 1629.73 C 1210.98 1620.35 1209.88 1609.73 1210.77 1600.32 C 1211.28 1594.94 1209.77 1586.35 1212.15 1582.68 z"/>
<path transform="translate(0,0)" fill="rgb(78,52,171)" d="M 899.243 1112.45 C 905.962 1114.15 909.603 1115.18 916.069 1117.66 C 909.142 1119.27 879.426 1120.5 872.316 1118.75 C 873.077 1117.29 893.545 1116.36 899.652 1114.24 L 899.243 1112.45 z"/>
<path transform="translate(0,0)" fill="rgb(78,52,171)" d="M 1401.4 1607.75 C 1403.88 1603.38 1401.23 1580.68 1402.89 1579.01 C 1403.9 1583.95 1403.04 1617.68 1403.01 1625.99 C 1400.85 1627.43 1401.75 1627.04 1399.11 1627.37 L 1399.65 1628.81 C 1408.17 1629.12 1415.16 1629.44 1423.6 1630.38 L 1423.91 1630.74 C 1411.8 1631.15 1395.9 1630.41 1383.62 1629.97 C 1388.49 1629.3 1390.53 1629.45 1394.51 1626.87 C 1397.36 1626.44 1397.8 1626.67 1400.07 1625.05 C 1402.29 1619.8 1401.41 1613.87 1401.4 1607.75 z"/>
<path transform="translate(0,0)" fill="rgb(78,52,171)" d="M 896.035 1140.65 C 903.535 1136.43 921.685 1135.26 930.019 1136.11 C 924.565 1140.86 911.663 1137.11 909.413 1142.73 C 912.556 1143.49 915.245 1143.34 917.694 1145.38 L 917.927 1146.59 L 896.035 1140.65 z"/>
<path transform="translate(0,0)" fill="rgb(78,52,171)" d="M 654.336 1568.69 C 655.995 1574.66 655.555 1624.53 653.892 1631.35 C 652.162 1626.17 652.145 1573.96 654.336 1568.69 z"/>
<path transform="translate(0,0)" fill="rgb(78,52,171)" d="M 1359.16 1447.57 C 1364.43 1448.92 1366.83 1449.49 1371.87 1451.69 L 1369.98 1453.81 C 1364.2 1456.35 1337.76 1454.83 1330.04 1454.52 L 1329.47 1453.47 C 1340.91 1453.86 1348.63 1451.29 1358.66 1450.34 C 1359.54 1452.79 1358.82 1451.78 1360.76 1453.41 C 1364.23 1453.86 1365.21 1454.24 1368.56 1453.06 L 1368.53 1452.12 C 1365.39 1450.97 1362.22 1449.88 1359.03 1448.86 L 1359.16 1447.57 z"/>
<path transform="translate(0,0)" fill="rgb(78,52,171)" d="M 792.873 1449.67 C 796.67 1443.03 795.403 1434.1 795.192 1426.58 L 796.484 1426.97 C 798.938 1434.4 800.704 1452.25 797.353 1459.4 L 792.873 1449.67 z"/>
<path transform="translate(0,0)" fill="rgb(78,52,171)" d="M 559.142 269.263 C 567.062 270.895 594.255 267.054 604.858 270.367 C 603.012 270.819 593.627 270.976 591.151 271.062 C 578.935 271.231 558.418 271.893 546.83 270.513 C 549.988 269.575 555.657 269.469 559.142 269.263 z"/>
<path transform="translate(0,0)" fill="rgb(78,52,171)" d="M 1262.96 1165.51 C 1273.35 1164.39 1307.19 1165.09 1317.31 1166.57 C 1306.97 1167.79 1272.24 1168.88 1262.96 1165.51 z"/>
<path transform="translate(0,0)" fill="rgb(78,52,171)" d="M 995.891 1332.49 C 1001.23 1327.96 1018.84 1327.45 1022.95 1331.21 L 1022.16 1332.33 C 1017.09 1332.65 1010.4 1332.37 1006.09 1334.14 L 1005.54 1336.25 C 1002.61 1334.95 998.925 1333.65 995.891 1332.49 z"/>
<path transform="translate(0,0)" fill="rgb(78,52,171)" d="M 1305.8 1432.33 C 1309.09 1433.35 1312.73 1434.39 1315.89 1435.65 C 1311.7 1440.67 1302.21 1440.93 1297.37 1436.83 L 1298 1435.5 C 1300.58 1434.88 1303.12 1434.25 1305.76 1434.01 C 1305.42 1433.98 1305.83 1434.22 1304.19 1432.93 L 1305.8 1432.33 z"/>
<path transform="translate(0,0)" fill="rgb(78,52,171)" d="M 913.32 1369.12 C 920.39 1375.05 921.929 1369.64 927.943 1373.01 C 925.933 1376.48 910.074 1376.13 905.937 1375.89 L 905.605 1375.64 C 907.504 1373.58 911.006 1370.96 913.32 1369.12 z"/>
<path transform="translate(0,0)" fill="rgb(78,52,171)" d="M 745.403 1164.25 C 744.185 1164.82 775.989 1165.91 777.609 1166.19 C 772.319 1167.27 766.978 1167.06 761.55 1167.12 C 751.047 1167.67 740.086 1167.07 729.56 1166.58 L 729.55 1166.02 C 734.136 1166.07 742.271 1166.52 746.362 1165.35 L 745.403 1164.25 z"/>
<path transform="translate(0,0)" fill="rgb(252,252,252)" d="M 1415.23 1569.66 C 1416.78 1568.59 1418.8 1568.47 1420.47 1569.35 C 1422.13 1570.22 1423.18 1571.95 1423.18 1573.84 C 1423.18 1575.73 1422.13 1577.45 1420.46 1578.33 C 1418.08 1579.58 1415.15 1578.76 1413.76 1576.46 C 1412.37 1574.16 1413.02 1571.18 1415.23 1569.66 z"/>
<path transform="translate(0,0)" fill="rgb(78,52,171)" d="M 675.846 1383.16 C 673.07 1377.75 670.938 1365.92 673.982 1360.5 C 677.818 1364.55 674.577 1370.98 678.389 1377.47 L 675.846 1383.16 z"/>
<path transform="translate(0,0)" fill="rgb(78,52,171)" d="M 950.163 1585.7 L 946.968 1584.51 C 944.822 1581.6 945.439 1573.76 945.976 1570.1 L 947.381 1569.96 C 948.795 1573.45 949.146 1574.44 951.735 1577.14 C 952.037 1581.21 952.738 1581.81 951.283 1585.02 L 950.163 1585.7 z"/>
<path transform="translate(0,0)" fill="rgb(78,52,171)" d="M 664.773 1486.64 C 666.771 1482.36 665.809 1482.82 669.175 1480.48 C 672.106 1485.35 672.013 1498.49 670.34 1503.75 L 669.518 1503.68 C 667.288 1494.27 671.894 1492.76 664.773 1486.64 z"/>
<path transform="translate(0,0)" fill="rgb(78,52,171)" d="M 746.189 1349.14 C 750.819 1341.59 747.615 1335.55 750.354 1328.39 C 751.803 1333.44 752.308 1349.87 748.76 1353.94 L 746.189 1349.14 z"/>
<path transform="translate(0,0)" fill="rgb(78,52,171)" d="M 761.609 1381.92 C 765.39 1378 763.357 1370.69 765.543 1361.83 C 766.544 1368.97 767.344 1381.25 764.409 1387.59 L 761.609 1381.92 z"/>
<path transform="translate(0,0)" fill="rgb(78,52,171)" d="M 890.149 1329.02 C 899.49 1328.9 908.167 1327.38 916.065 1331.96 L 909.11 1334.61 C 904.99 1331.5 896.328 1330.86 890.149 1329.02 z"/>
<path transform="translate(0,0)" fill="rgb(78,52,171)" d="M 1266.05 1471.61 C 1267.87 1473.91 1268.15 1492.9 1267.79 1496.46 C 1262.61 1493.2 1265.15 1477.28 1266.05 1471.61 z"/>
<path transform="translate(0,0)" fill="rgb(78,52,171)" d="M 810.217 1487.88 C 812.79 1482.09 811.134 1477.19 813.915 1472.38 C 816.243 1476.12 814.408 1487.66 812.527 1491.78 L 810.217 1487.88 z"/>
<path transform="translate(0,0)" fill="rgb(78,52,171)" d="M 1437.32 1454.77 C 1440.52 1458.29 1438.74 1481.24 1438.51 1487.3 C 1436.91 1478.36 1436.88 1463.78 1437.32 1454.77 z"/>
<path transform="translate(0,0)" fill="rgb(78,52,171)" d="M 606.5 1165.46 C 613.622 1165.04 617.786 1164.71 624.883 1166.13 C 622.155 1167.33 619.258 1167.16 616.223 1167.29 C 609.065 1167.29 603.436 1166.86 596.29 1166.26 L 606.5 1165.46 z"/>
<path transform="translate(0,0)" fill="rgb(78,52,171)" d="M 781.134 1392.6 L 782.705 1394.14 C 783.582 1400.74 783.334 1411.64 782.67 1418.33 C 780.778 1411.79 780.856 1399.55 781.134 1392.6 z"/>
<path transform="translate(0,0)" fill="rgb(78,52,171)" d="M 618.445 1121.2 C 623.566 1121 639.084 1120.57 643.44 1121.61 C 635.839 1125.19 626.456 1123.02 618.445 1121.2 z"/>
<path transform="translate(0,0)" fill="rgb(78,52,171)" d="M 1179.22 496.217 C 1181.56 496.599 1181.39 496.586 1183.25 498.092 C 1184.54 501.276 1183.64 503.142 1182.8 506.53 C 1178.14 503.958 1178.6 500.81 1179.22 496.217 z"/>
<path transform="translate(0,0)" fill="rgb(78,52,171)" d="M 1156.61 1116.67 C 1160.6 1116.83 1168.08 1116.89 1171.77 1117.38 L 1172.46 1118.31 L 1173.85 1118 L 1171.84 1117.57 L 1171.18 1118.62 C 1165.27 1119.01 1161.43 1119.19 1155.46 1119.01 L 1156.61 1116.67 z"/>
<path transform="translate(0,0)" fill="rgb(78,52,171)" d="M 623.976 1568.2 C 625.867 1568.9 625.451 1568.79 627.138 1569.99 C 627.716 1573.22 627.564 1574.47 627.436 1577.66 L 625.032 1577.84 C 623.251 1575.24 623.87 1571.54 623.976 1568.2 z"/>
<path transform="translate(0,0)" fill="rgb(78,52,171)" d="M 1544.3 284.4 C 1548.29 283.887 1551.67 284.041 1555.44 285.485 L 1551.25 286.09 C 1548.17 286.082 1538.97 286.472 1536.88 285.364 L 1544.3 284.4 z"/>
<path transform="translate(0,0)" fill="rgb(78,52,171)" d="M 1422.1 1346.66 C 1423.34 1350.33 1423.65 1355.01 1422.48 1358.74 C 1421.26 1358.21 1421.91 1358.65 1420.88 1357.05 C 1420.78 1352.24 1420.94 1351.36 1422.1 1346.66 z"/>
<path transform="translate(0,0)" fill="rgb(78,52,171)" d="M 453.375 301.409 C 459.47 300.204 463.372 301.452 469.554 302.549 C 463.958 303.138 457.994 304.413 453.375 301.409 z"/>
<path transform="translate(0,0)" fill="rgb(78,52,171)" d="M 717.947 902.536 L 719.19 903.782 C 720.295 906.444 719.258 910.464 718.79 913.531 L 717.471 912.415 C 716.239 909.014 717.254 906.197 717.947 902.536 z"/>
<path transform="translate(0,0)" fill="rgb(78,52,171)" d="M 620.849 1062.46 L 622.363 1063.58 C 624.067 1066.89 623.307 1069.64 622.943 1073.45 L 621.895 1072.62 C 620.41 1069.64 620.824 1065.91 620.849 1062.46 z"/>
<path transform="translate(0,0)" fill="rgb(78,52,171)" d="M 1118 820.68 C 1119.43 825.615 1119.12 828.54 1118.61 833.568 C 1116.01 828.314 1116.28 826.351 1118 820.68 z"/>
<path transform="translate(0,0)" fill="rgb(78,52,171)" d="M 848.791 1376.33 L 850.509 1377.56 C 851.903 1380.24 851.112 1382.07 850.505 1385.11 L 850.008 1385.07 C 848.404 1382.35 848.889 1379.87 848.791 1376.33 z"/>
</svg>
